M48
; DRILL file {KiCad 9.0.6} date 2026-08-17T18:47:41+0200
; FORMAT={-:-/ absolute / inch / decimal}
; #@! TF.CreationDate,2026-08-17T18:47:41+02:00
; #@! TF.GenerationSoftware,Kicad,Pcbnew,9.0.6
; #@! TF.FileFunction,Plated,1,2,PTH
FMAT,2
INCH
; #@! TA.AperFunction,Plated,PTH,ComponentDrill
T1C0.0354
%
G90
G05
T1
X3.439Y-4.8858
X3.4394Y-4.461
X3.4394Y-4.5603
X3.4394Y-4.6596
X3.4402Y-4.1654
X3.4402Y-4.2646
X3.4406Y-3.4717
X3.4409Y-3.0732
X3.4409Y-3.172
X3.4409Y-3.7673
X3.4409Y-3.8677
X3.4409Y-4.0657
X3.4409Y-4.3642
X3.4413Y-3.5701
X3.4413Y-3.6693
X3.4417Y-3.2701
X3.4417Y-3.3693
X3.4417Y-3.9661
X3.4421Y-2.9752
X3.4472Y-2.878
X3.5618Y-4.4606
X3.5618Y-4.5599
X3.5618Y-4.6592
X3.5626Y-4.165
X3.5626Y-4.2642
X3.563Y-3.4713
X3.5634Y-3.0728
X3.5634Y-3.1717
X3.5634Y-3.7669
X3.5634Y-3.8673
X3.5634Y-4.0654
X3.5634Y-4.3638
X3.5638Y-3.5697
X3.5638Y-3.6689
X3.5642Y-3.2697
X3.5642Y-3.3689
X3.5642Y-3.9657
X3.5646Y-2.9748
X3.5697Y-2.8776
X3.6244Y-4.8858
X3.685Y-4.4626
X3.685Y-4.5619
X3.685Y-4.6612
X3.6858Y-4.1669
X3.6858Y-4.2661
X3.6862Y-3.4732
X3.6866Y-3.0748
X3.6866Y-3.1736
X3.6866Y-3.7689
X3.6866Y-3.8693
X3.6866Y-4.0673
X3.6866Y-4.3657
X3.687Y-3.5717
X3.687Y-3.6709
X3.6874Y-3.2717
X3.6874Y-3.3709
X3.6874Y-3.9677
X3.6878Y-2.9768
X3.6929Y-2.8795
X3.7827Y-4.8858
X3.8984Y-3.5772
X3.8988Y-3.9772
X3.8988Y-4.6776
X3.8992Y-2.8795
X3.8992Y-2.9795
X3.8992Y-3.0776
X3.8992Y-3.1783
X3.8992Y-3.2799
X3.8992Y-3.3768
X3.8992Y-3.4772
X3.8992Y-3.6795
X3.8992Y-3.778
X3.8992Y-3.8776
X3.8992Y-4.0787
X3.8992Y-4.1783
X3.8992Y-4.2791
X3.8992Y-4.3768
X3.8992Y-4.4783
X3.8992Y-4.5768
X3.9705Y-4.8858
X4.924Y-4.4807
X4.924Y-4.5799
X4.924Y-4.6807
X4.9244Y-2.9807
X4.9244Y-3.0807
X4.9244Y-3.6799
X4.9248Y-2.8799
X4.9248Y-3.3799
X4.9248Y-3.4799
X4.9248Y-3.5799
X4.9248Y-3.7795
X4.9248Y-3.8795
X4.9248Y-3.9799
X4.9248Y-4.0799
X4.9248Y-4.1799
X4.9252Y-3.1799
X4.9252Y-4.2799
X4.9252Y-4.3791
X4.9256Y-3.2803
X5.0984Y-4.3677
X5.0988Y-2.9713
X5.0988Y-3.0717
X5.0988Y-3.1701
X5.0988Y-3.2693
X5.0992Y-3.7665
X5.0992Y-3.8665
X5.0992Y-3.9661
X5.0992Y-4.065
X5.0992Y-4.1642
X5.0992Y-4.661
X5.0996Y-2.8697
X5.0996Y-3.3657
X5.0996Y-3.465
X5.0996Y-3.5685
X5.0996Y-4.4602
X5.0996Y-4.5614
X5.1Y-3.6681
X5.1004Y-4.2622
X5.2209Y-4.3673
X5.2213Y-2.9709
X5.2213Y-3.0713
X5.2213Y-3.1697
X5.2213Y-3.2689
X5.2217Y-3.7661
X5.2217Y-3.8661
X5.2217Y-3.9657
X5.2217Y-4.0646
X5.2217Y-4.1638
X5.2217Y-4.6606
X5.222Y-2.8693
X5.222Y-3.3653
X5.222Y-3.4646
X5.222Y-3.5681
X5.222Y-4.4598
X5.222Y-4.561
X5.2224Y-3.6677
X5.2228Y-4.2618
X5.3441Y-4.3693
X5.3445Y-2.9728
X5.3445Y-3.0732
X5.3445Y-3.1717
X5.3445Y-3.2709
X5.3449Y-3.7681
X5.3449Y-3.8681
X5.3449Y-3.9677
X5.3449Y-4.0665
X5.3449Y-4.1657
X5.3449Y-4.6626
X5.3453Y-2.8713
X5.3453Y-3.3673
X5.3453Y-3.4665
X5.3453Y-3.5701
X5.3453Y-4.4618
X5.3453Y-4.563
X5.3457Y-3.6697
X5.3461Y-4.2638
M30
