%TF.GenerationSoftware,KiCad,Pcbnew,9.0.6*%
%TF.CreationDate,2026-08-17T18:47:39+02:00*%
%TF.ProjectId,ESP32DevKItV4,45535033-3244-4657-964b-497456342e6b,rev?*%
%TF.SameCoordinates,Original*%
%TF.FileFunction,Soldermask,Bot*%
%TF.FilePolarity,Negative*%
%FSLAX46Y46*%
G04 Gerber Fmt 4.6, Leading zero omitted, Abs format (unit mm)*
G04 Created by KiCad (PCBNEW 9.0.6) date 2026-08-17 18:47:39*
%MOMM*%
%LPD*%
G01*
G04 APERTURE LIST*
%ADD10C,1.500000*%
G04 APERTURE END LIST*
D10*
%TO.C,*%
X99040000Y-116250000D03*
%TD*%
%TO.C,*%
X135750000Y-80560000D03*
%TD*%
%TO.C,*%
X132640000Y-85478333D03*
%TD*%
%TO.C,*%
X90510000Y-103260000D03*
%TD*%
%TO.C,*%
X132650000Y-93160000D03*
%TD*%
%TO.C,*%
X132630000Y-98200000D03*
%TD*%
%TO.C,*%
X87380000Y-108320000D03*
%TD*%
%TO.C,*%
X135770000Y-113330000D03*
%TD*%
%TO.C,*%
X93630000Y-88220000D03*
%TD*%
%TO.C,*%
X125090000Y-85850000D03*
%TD*%
%TO.C,*%
X132660000Y-108250000D03*
%TD*%
%TO.C,*%
X129530000Y-72890000D03*
%TD*%
%TO.C,*%
X132640000Y-115850000D03*
%TD*%
%TO.C,*%
X93640000Y-98280000D03*
%TD*%
%TO.C,*%
X99040000Y-80730000D03*
%TD*%
%TO.C,*%
X90470000Y-113300000D03*
%TD*%
%TO.C,*%
X87420000Y-100740000D03*
%TD*%
%TO.C,*%
X129510000Y-83040000D03*
%TD*%
%TO.C,*%
X93600000Y-113350000D03*
%TD*%
%TO.C,*%
X90470000Y-118343333D03*
%TD*%
%TO.C,*%
X93800000Y-73140000D03*
%TD*%
%TO.C,*%
X129520000Y-95670000D03*
%TD*%
%TO.C,*%
X129510000Y-80520000D03*
%TD*%
%TO.C,*%
X135770000Y-90680000D03*
%TD*%
%TO.C,*%
X90510000Y-110840000D03*
%TD*%
%TO.C,*%
X87410000Y-90680000D03*
%TD*%
%TO.C,*%
X129530000Y-90640000D03*
%TD*%
%TO.C,*%
X125090000Y-101090000D03*
%TD*%
%TO.C,*%
X93640000Y-78100000D03*
%TD*%
%TO.C,*%
X99040000Y-73140000D03*
%TD*%
%TO.C,*%
X132640000Y-72880000D03*
%TD*%
%TO.C,*%
X135770000Y-88050000D03*
%TD*%
%TO.C,*%
X125070000Y-116330000D03*
%TD*%
%TO.C,*%
X129520000Y-103250000D03*
%TD*%
%TO.C,*%
X99040000Y-88320000D03*
%TD*%
%TO.C,*%
X93600000Y-118393333D03*
%TD*%
%TO.C,*%
X90520000Y-93190000D03*
%TD*%
%TO.C,*%
X99040000Y-108690000D03*
%TD*%
%TO.C,*%
X90490000Y-108310000D03*
%TD*%
%TO.C,*%
X90490000Y-105790000D03*
%TD*%
%TO.C,*%
X129520000Y-118390000D03*
%TD*%
%TO.C,*%
X87360000Y-113310000D03*
%TD*%
%TO.C,*%
X135770000Y-85528333D03*
%TD*%
%TO.C,*%
X99040000Y-75680000D03*
%TD*%
%TO.C,*%
X132640000Y-90630000D03*
%TD*%
%TO.C,*%
X90530000Y-100730000D03*
%TD*%
%TO.C,*%
X125090000Y-96000000D03*
%TD*%
%TO.C,*%
X93640000Y-80610000D03*
%TD*%
%TO.C,*%
X132610000Y-110930000D03*
%TD*%
%TO.C,*%
X93600000Y-115871667D03*
%TD*%
%TO.C,*%
X87400000Y-103270000D03*
%TD*%
%TO.C,*%
X129530000Y-85488333D03*
%TD*%
%TO.C,*%
X93640000Y-95730000D03*
%TD*%
%TO.C,*%
X87400000Y-110850000D03*
%TD*%
%TO.C,*%
X125090000Y-106170000D03*
%TD*%
%TO.C,*%
X93660000Y-100780000D03*
%TD*%
%TO.C,*%
X87360000Y-118353333D03*
%TD*%
%TO.C,*%
X99030000Y-101020000D03*
%TD*%
%TO.C,*%
X93620000Y-105840000D03*
%TD*%
%TO.C,*%
X125100000Y-111230000D03*
%TD*%
%TO.C,*%
X132620000Y-75460000D03*
%TD*%
%TO.C,*%
X99040000Y-113750000D03*
%TD*%
%TO.C,*%
X93660000Y-83100000D03*
%TD*%
%TO.C,*%
X99040000Y-103600000D03*
%TD*%
%TO.C,*%
X132630000Y-100730000D03*
%TD*%
%TO.C,*%
X87350000Y-124100000D03*
%TD*%
%TO.C,*%
X90510000Y-78050000D03*
%TD*%
%TO.C,*%
X135790000Y-108300000D03*
%TD*%
%TO.C,*%
X90540000Y-75560000D03*
%TD*%
%TO.C,*%
X87390000Y-88180000D03*
%TD*%
%TO.C,*%
X132640000Y-113280000D03*
%TD*%
%TO.C,*%
X129530000Y-88010000D03*
%TD*%
%TO.C,*%
X90530000Y-85570000D03*
%TD*%
%TO.C,*%
X135750000Y-75510000D03*
%TD*%
%TO.C,*%
X132630000Y-118380000D03*
%TD*%
%TO.C,*%
X90510000Y-95680000D03*
%TD*%
%TO.C,*%
X93640000Y-103310000D03*
%TD*%
%TO.C,*%
X135770000Y-115900000D03*
%TD*%
%TO.C,*%
X125070000Y-118890000D03*
%TD*%
%TO.C,*%
X87400000Y-95690000D03*
%TD*%
%TO.C,*%
X87430000Y-75570000D03*
%TD*%
%TO.C,*%
X90500000Y-88170000D03*
%TD*%
%TO.C,*%
X129520000Y-98210000D03*
%TD*%
%TO.C,*%
X132620000Y-78010000D03*
%TD*%
%TO.C,*%
X87360000Y-115831667D03*
%TD*%
%TO.C,*%
X125070000Y-113810000D03*
%TD*%
%TO.C,*%
X87420000Y-85580000D03*
%TD*%
%TO.C,*%
X87420000Y-83060000D03*
%TD*%
%TO.C,*%
X99040000Y-78170000D03*
%TD*%
%TO.C,*%
X135760000Y-95710000D03*
%TD*%
%TO.C,*%
X135760000Y-118430000D03*
%TD*%
%TO.C,*%
X93660000Y-85620000D03*
%TD*%
%TO.C,*%
X129540000Y-93170000D03*
%TD*%
%TO.C,*%
X129500000Y-110940000D03*
%TD*%
%TO.C,*%
X99040000Y-111170000D03*
%TD*%
%TO.C,*%
X132630000Y-95660000D03*
%TD*%
%TO.C,*%
X93650000Y-90720000D03*
%TD*%
%TO.C,*%
X96080000Y-124100000D03*
%TD*%
%TO.C,*%
X90670000Y-73090000D03*
%TD*%
%TO.C,*%
X93640000Y-110890000D03*
%TD*%
%TO.C,*%
X87400000Y-80570000D03*
%TD*%
%TO.C,*%
X135760000Y-105810000D03*
%TD*%
%TO.C,*%
X132630000Y-105760000D03*
%TD*%
%TO.C,*%
X132640000Y-88000000D03*
%TD*%
%TO.C,*%
X135770000Y-72930000D03*
%TD*%
%TO.C,*%
X135750000Y-83080000D03*
%TD*%
%TO.C,*%
X135760000Y-98250000D03*
%TD*%
%TO.C,*%
X135750000Y-78060000D03*
%TD*%
%TO.C,*%
X99040000Y-98490000D03*
%TD*%
%TO.C,*%
X92060000Y-124100000D03*
%TD*%
%TO.C,*%
X99020000Y-90860000D03*
%TD*%
%TO.C,*%
X129530000Y-113290000D03*
%TD*%
%TO.C,*%
X132620000Y-80510000D03*
%TD*%
%TO.C,*%
X90510000Y-80560000D03*
%TD*%
%TO.C,*%
X90470000Y-115821667D03*
%TD*%
%TO.C,*%
X125090000Y-90930000D03*
%TD*%
%TO.C,*%
X129510000Y-75470000D03*
%TD*%
%TO.C,*%
X100850000Y-124100000D03*
%TD*%
%TO.C,*%
X135760000Y-100780000D03*
%TD*%
%TO.C,*%
X93620000Y-108360000D03*
%TD*%
%TO.C,*%
X99040000Y-85770000D03*
%TD*%
%TO.C,*%
X129520000Y-105770000D03*
%TD*%
%TO.C,*%
X129520000Y-100740000D03*
%TD*%
%TO.C,*%
X135740000Y-110980000D03*
%TD*%
%TO.C,*%
X129510000Y-78020000D03*
%TD*%
%TO.C,*%
X87380000Y-105800000D03*
%TD*%
%TO.C,*%
X90520000Y-90670000D03*
%TD*%
%TO.C,*%
X129530000Y-115860000D03*
%TD*%
%TO.C,*%
X87410000Y-93200000D03*
%TD*%
%TO.C,*%
X135760000Y-103290000D03*
%TD*%
%TO.C,*%
X99040000Y-106130000D03*
%TD*%
%TO.C,*%
X125090000Y-73150000D03*
%TD*%
%TO.C,*%
X87400000Y-98240000D03*
%TD*%
%TO.C,*%
X90510000Y-98230000D03*
%TD*%
%TO.C,*%
X125080000Y-78250000D03*
%TD*%
%TO.C,*%
X93670000Y-75610000D03*
%TD*%
%TO.C,*%
X99040000Y-93460000D03*
%TD*%
%TO.C,*%
X93650000Y-93240000D03*
%TD*%
%TO.C,*%
X125100000Y-108710000D03*
%TD*%
%TO.C,*%
X125100000Y-80770000D03*
%TD*%
%TO.C,*%
X99040000Y-95960000D03*
%TD*%
%TO.C,*%
X87400000Y-78060000D03*
%TD*%
%TO.C,*%
X132620000Y-83030000D03*
%TD*%
%TO.C,*%
X135780000Y-93210000D03*
%TD*%
%TO.C,*%
X129550000Y-108260000D03*
%TD*%
%TO.C,*%
X90530000Y-83050000D03*
%TD*%
%TO.C,*%
X87560000Y-73100000D03*
%TD*%
%TO.C,*%
X125090000Y-103630000D03*
%TD*%
%TO.C,*%
X125110000Y-83320000D03*
%TD*%
%TO.C,*%
X99040000Y-83310000D03*
%TD*%
%TO.C,*%
X125080000Y-93470000D03*
%TD*%
%TO.C,*%
X125090000Y-88390000D03*
%TD*%
%TO.C,*%
X132630000Y-103240000D03*
%TD*%
%TO.C,*%
X125090000Y-98540000D03*
%TD*%
%TO.C,*%
X99030000Y-118810000D03*
%TD*%
%TO.C,*%
X125080000Y-75710000D03*
%TD*%
M02*
