%TF.GenerationSoftware,KiCad,Pcbnew,9.0.6*%
%TF.CreationDate,2026-08-17T18:47:38+02:00*%
%TF.ProjectId,ESP32DevKItV4,45535033-3244-4657-964b-497456342e6b,rev?*%
%TF.SameCoordinates,Original*%
%TF.FileFunction,Legend,Top*%
%TF.FilePolarity,Positive*%
%FSLAX46Y46*%
G04 Gerber Fmt 4.6, Leading zero omitted, Abs format (unit mm)*
G04 Created by KiCad (PCBNEW 9.0.6) date 2026-08-17 18:47:38*
%MOMM*%
%LPD*%
G01*
G04 APERTURE LIST*
%ADD10C,0.100000*%
%ADD11C,0.150000*%
%ADD12C,0.200000*%
G04 APERTURE END LIST*
D10*
X90870000Y-124110000D02*
X91260000Y-124110000D01*
X88210000Y-124010000D02*
X90870000Y-122900000D01*
D11*
X83691541Y-82659819D02*
X84310588Y-82659819D01*
X84310588Y-82659819D02*
X83977255Y-83040771D01*
X83977255Y-83040771D02*
X84120112Y-83040771D01*
X84120112Y-83040771D02*
X84215350Y-83088390D01*
X84215350Y-83088390D02*
X84262969Y-83136009D01*
X84262969Y-83136009D02*
X84310588Y-83231247D01*
X84310588Y-83231247D02*
X84310588Y-83469342D01*
X84310588Y-83469342D02*
X84262969Y-83564580D01*
X84262969Y-83564580D02*
X84215350Y-83612200D01*
X84215350Y-83612200D02*
X84120112Y-83659819D01*
X84120112Y-83659819D02*
X83834398Y-83659819D01*
X83834398Y-83659819D02*
X83739160Y-83612200D01*
X83739160Y-83612200D02*
X83691541Y-83564580D01*
X85167731Y-82993152D02*
X85167731Y-83659819D01*
X84929636Y-82612200D02*
X84691541Y-83326485D01*
X84691541Y-83326485D02*
X85310588Y-83326485D01*
X138430588Y-87767438D02*
X138335350Y-87719819D01*
X138335350Y-87719819D02*
X138192493Y-87719819D01*
X138192493Y-87719819D02*
X138049636Y-87767438D01*
X138049636Y-87767438D02*
X137954398Y-87862676D01*
X137954398Y-87862676D02*
X137906779Y-87957914D01*
X137906779Y-87957914D02*
X137859160Y-88148390D01*
X137859160Y-88148390D02*
X137859160Y-88291247D01*
X137859160Y-88291247D02*
X137906779Y-88481723D01*
X137906779Y-88481723D02*
X137954398Y-88576961D01*
X137954398Y-88576961D02*
X138049636Y-88672200D01*
X138049636Y-88672200D02*
X138192493Y-88719819D01*
X138192493Y-88719819D02*
X138287731Y-88719819D01*
X138287731Y-88719819D02*
X138430588Y-88672200D01*
X138430588Y-88672200D02*
X138478207Y-88624580D01*
X138478207Y-88624580D02*
X138478207Y-88291247D01*
X138478207Y-88291247D02*
X138287731Y-88291247D01*
X138906779Y-88719819D02*
X138906779Y-87719819D01*
X138906779Y-87719819D02*
X139478207Y-88719819D01*
X139478207Y-88719819D02*
X139478207Y-87719819D01*
X139954398Y-88719819D02*
X139954398Y-87719819D01*
X139954398Y-87719819D02*
X140192493Y-87719819D01*
X140192493Y-87719819D02*
X140335350Y-87767438D01*
X140335350Y-87767438D02*
X140430588Y-87862676D01*
X140430588Y-87862676D02*
X140478207Y-87957914D01*
X140478207Y-87957914D02*
X140525826Y-88148390D01*
X140525826Y-88148390D02*
X140525826Y-88291247D01*
X140525826Y-88291247D02*
X140478207Y-88481723D01*
X140478207Y-88481723D02*
X140430588Y-88576961D01*
X140430588Y-88576961D02*
X140335350Y-88672200D01*
X140335350Y-88672200D02*
X140192493Y-88719819D01*
X140192493Y-88719819D02*
X139954398Y-88719819D01*
X83776779Y-75806009D02*
X84110112Y-75806009D01*
X84252969Y-76329819D02*
X83776779Y-76329819D01*
X83776779Y-76329819D02*
X83776779Y-75329819D01*
X83776779Y-75329819D02*
X84252969Y-75329819D01*
X84681541Y-76329819D02*
X84681541Y-75329819D01*
X84681541Y-75329819D02*
X85252969Y-76329819D01*
X85252969Y-76329819D02*
X85252969Y-75329819D01*
X84380588Y-116019819D02*
X83809160Y-116019819D01*
X84094874Y-116019819D02*
X84094874Y-115019819D01*
X84094874Y-115019819D02*
X83999636Y-115162676D01*
X83999636Y-115162676D02*
X83904398Y-115257914D01*
X83904398Y-115257914D02*
X83809160Y-115305533D01*
X85332969Y-116019819D02*
X84761541Y-116019819D01*
X85047255Y-116019819D02*
X85047255Y-115019819D01*
X85047255Y-115019819D02*
X84952017Y-115162676D01*
X84952017Y-115162676D02*
X84856779Y-115257914D01*
X84856779Y-115257914D02*
X84761541Y-115305533D01*
D12*
X126799673Y-124409409D02*
X127133006Y-124409409D01*
X127275863Y-124933219D02*
X126799673Y-124933219D01*
X126799673Y-124933219D02*
X126799673Y-123933219D01*
X126799673Y-123933219D02*
X127275863Y-123933219D01*
X127656816Y-124885600D02*
X127799673Y-124933219D01*
X127799673Y-124933219D02*
X128037768Y-124933219D01*
X128037768Y-124933219D02*
X128133006Y-124885600D01*
X128133006Y-124885600D02*
X128180625Y-124837980D01*
X128180625Y-124837980D02*
X128228244Y-124742742D01*
X128228244Y-124742742D02*
X128228244Y-124647504D01*
X128228244Y-124647504D02*
X128180625Y-124552266D01*
X128180625Y-124552266D02*
X128133006Y-124504647D01*
X128133006Y-124504647D02*
X128037768Y-124457028D01*
X128037768Y-124457028D02*
X127847292Y-124409409D01*
X127847292Y-124409409D02*
X127752054Y-124361790D01*
X127752054Y-124361790D02*
X127704435Y-124314171D01*
X127704435Y-124314171D02*
X127656816Y-124218933D01*
X127656816Y-124218933D02*
X127656816Y-124123695D01*
X127656816Y-124123695D02*
X127704435Y-124028457D01*
X127704435Y-124028457D02*
X127752054Y-123980838D01*
X127752054Y-123980838D02*
X127847292Y-123933219D01*
X127847292Y-123933219D02*
X128085387Y-123933219D01*
X128085387Y-123933219D02*
X128228244Y-123980838D01*
X128656816Y-124933219D02*
X128656816Y-123933219D01*
X128656816Y-123933219D02*
X129037768Y-123933219D01*
X129037768Y-123933219D02*
X129133006Y-123980838D01*
X129133006Y-123980838D02*
X129180625Y-124028457D01*
X129180625Y-124028457D02*
X129228244Y-124123695D01*
X129228244Y-124123695D02*
X129228244Y-124266552D01*
X129228244Y-124266552D02*
X129180625Y-124361790D01*
X129180625Y-124361790D02*
X129133006Y-124409409D01*
X129133006Y-124409409D02*
X129037768Y-124457028D01*
X129037768Y-124457028D02*
X128656816Y-124457028D01*
X129561578Y-123933219D02*
X130180625Y-123933219D01*
X130180625Y-123933219D02*
X129847292Y-124314171D01*
X129847292Y-124314171D02*
X129990149Y-124314171D01*
X129990149Y-124314171D02*
X130085387Y-124361790D01*
X130085387Y-124361790D02*
X130133006Y-124409409D01*
X130133006Y-124409409D02*
X130180625Y-124504647D01*
X130180625Y-124504647D02*
X130180625Y-124742742D01*
X130180625Y-124742742D02*
X130133006Y-124837980D01*
X130133006Y-124837980D02*
X130085387Y-124885600D01*
X130085387Y-124885600D02*
X129990149Y-124933219D01*
X129990149Y-124933219D02*
X129704435Y-124933219D01*
X129704435Y-124933219D02*
X129609197Y-124885600D01*
X129609197Y-124885600D02*
X129561578Y-124837980D01*
X130561578Y-124028457D02*
X130609197Y-123980838D01*
X130609197Y-123980838D02*
X130704435Y-123933219D01*
X130704435Y-123933219D02*
X130942530Y-123933219D01*
X130942530Y-123933219D02*
X131037768Y-123980838D01*
X131037768Y-123980838D02*
X131085387Y-124028457D01*
X131085387Y-124028457D02*
X131133006Y-124123695D01*
X131133006Y-124123695D02*
X131133006Y-124218933D01*
X131133006Y-124218933D02*
X131085387Y-124361790D01*
X131085387Y-124361790D02*
X130513959Y-124933219D01*
X130513959Y-124933219D02*
X131133006Y-124933219D01*
X132323483Y-124933219D02*
X132323483Y-123933219D01*
X132323483Y-123933219D02*
X132561578Y-123933219D01*
X132561578Y-123933219D02*
X132704435Y-123980838D01*
X132704435Y-123980838D02*
X132799673Y-124076076D01*
X132799673Y-124076076D02*
X132847292Y-124171314D01*
X132847292Y-124171314D02*
X132894911Y-124361790D01*
X132894911Y-124361790D02*
X132894911Y-124504647D01*
X132894911Y-124504647D02*
X132847292Y-124695123D01*
X132847292Y-124695123D02*
X132799673Y-124790361D01*
X132799673Y-124790361D02*
X132704435Y-124885600D01*
X132704435Y-124885600D02*
X132561578Y-124933219D01*
X132561578Y-124933219D02*
X132323483Y-124933219D01*
X133704435Y-124885600D02*
X133609197Y-124933219D01*
X133609197Y-124933219D02*
X133418721Y-124933219D01*
X133418721Y-124933219D02*
X133323483Y-124885600D01*
X133323483Y-124885600D02*
X133275864Y-124790361D01*
X133275864Y-124790361D02*
X133275864Y-124409409D01*
X133275864Y-124409409D02*
X133323483Y-124314171D01*
X133323483Y-124314171D02*
X133418721Y-124266552D01*
X133418721Y-124266552D02*
X133609197Y-124266552D01*
X133609197Y-124266552D02*
X133704435Y-124314171D01*
X133704435Y-124314171D02*
X133752054Y-124409409D01*
X133752054Y-124409409D02*
X133752054Y-124504647D01*
X133752054Y-124504647D02*
X133275864Y-124599885D01*
X134085388Y-124266552D02*
X134323483Y-124933219D01*
X134323483Y-124933219D02*
X134561578Y-124266552D01*
X134942531Y-124933219D02*
X134942531Y-123933219D01*
X135513959Y-124933219D02*
X135085388Y-124361790D01*
X135513959Y-123933219D02*
X134942531Y-124504647D01*
X135942531Y-124933219D02*
X135942531Y-123933219D01*
X136275864Y-124266552D02*
X136656816Y-124266552D01*
X136418721Y-123933219D02*
X136418721Y-124790361D01*
X136418721Y-124790361D02*
X136466340Y-124885600D01*
X136466340Y-124885600D02*
X136561578Y-124933219D01*
X136561578Y-124933219D02*
X136656816Y-124933219D01*
X137609198Y-123933219D02*
X137942531Y-124933219D01*
X137942531Y-124933219D02*
X138275864Y-123933219D01*
X139037769Y-124266552D02*
X139037769Y-124933219D01*
X138799674Y-123885600D02*
X138561579Y-124599885D01*
X138561579Y-124599885D02*
X139180626Y-124599885D01*
D11*
X138097255Y-105389819D02*
X138192493Y-105389819D01*
X138192493Y-105389819D02*
X138287731Y-105437438D01*
X138287731Y-105437438D02*
X138335350Y-105485057D01*
X138335350Y-105485057D02*
X138382969Y-105580295D01*
X138382969Y-105580295D02*
X138430588Y-105770771D01*
X138430588Y-105770771D02*
X138430588Y-106008866D01*
X138430588Y-106008866D02*
X138382969Y-106199342D01*
X138382969Y-106199342D02*
X138335350Y-106294580D01*
X138335350Y-106294580D02*
X138287731Y-106342200D01*
X138287731Y-106342200D02*
X138192493Y-106389819D01*
X138192493Y-106389819D02*
X138097255Y-106389819D01*
X138097255Y-106389819D02*
X138002017Y-106342200D01*
X138002017Y-106342200D02*
X137954398Y-106294580D01*
X137954398Y-106294580D02*
X137906779Y-106199342D01*
X137906779Y-106199342D02*
X137859160Y-106008866D01*
X137859160Y-106008866D02*
X137859160Y-105770771D01*
X137859160Y-105770771D02*
X137906779Y-105580295D01*
X137906779Y-105580295D02*
X137954398Y-105485057D01*
X137954398Y-105485057D02*
X138002017Y-105437438D01*
X138002017Y-105437438D02*
X138097255Y-105389819D01*
X139049636Y-105389819D02*
X139144874Y-105389819D01*
X139144874Y-105389819D02*
X139240112Y-105437438D01*
X139240112Y-105437438D02*
X139287731Y-105485057D01*
X139287731Y-105485057D02*
X139335350Y-105580295D01*
X139335350Y-105580295D02*
X139382969Y-105770771D01*
X139382969Y-105770771D02*
X139382969Y-106008866D01*
X139382969Y-106008866D02*
X139335350Y-106199342D01*
X139335350Y-106199342D02*
X139287731Y-106294580D01*
X139287731Y-106294580D02*
X139240112Y-106342200D01*
X139240112Y-106342200D02*
X139144874Y-106389819D01*
X139144874Y-106389819D02*
X139049636Y-106389819D01*
X139049636Y-106389819D02*
X138954398Y-106342200D01*
X138954398Y-106342200D02*
X138906779Y-106294580D01*
X138906779Y-106294580D02*
X138859160Y-106199342D01*
X138859160Y-106199342D02*
X138811541Y-106008866D01*
X138811541Y-106008866D02*
X138811541Y-105770771D01*
X138811541Y-105770771D02*
X138859160Y-105580295D01*
X138859160Y-105580295D02*
X138906779Y-105485057D01*
X138906779Y-105485057D02*
X138954398Y-105437438D01*
X138954398Y-105437438D02*
X139049636Y-105389819D01*
X83340588Y-105427438D02*
X83245350Y-105379819D01*
X83245350Y-105379819D02*
X83102493Y-105379819D01*
X83102493Y-105379819D02*
X82959636Y-105427438D01*
X82959636Y-105427438D02*
X82864398Y-105522676D01*
X82864398Y-105522676D02*
X82816779Y-105617914D01*
X82816779Y-105617914D02*
X82769160Y-105808390D01*
X82769160Y-105808390D02*
X82769160Y-105951247D01*
X82769160Y-105951247D02*
X82816779Y-106141723D01*
X82816779Y-106141723D02*
X82864398Y-106236961D01*
X82864398Y-106236961D02*
X82959636Y-106332200D01*
X82959636Y-106332200D02*
X83102493Y-106379819D01*
X83102493Y-106379819D02*
X83197731Y-106379819D01*
X83197731Y-106379819D02*
X83340588Y-106332200D01*
X83340588Y-106332200D02*
X83388207Y-106284580D01*
X83388207Y-106284580D02*
X83388207Y-105951247D01*
X83388207Y-105951247D02*
X83197731Y-105951247D01*
X83816779Y-106379819D02*
X83816779Y-105379819D01*
X83816779Y-105379819D02*
X84388207Y-106379819D01*
X84388207Y-106379819D02*
X84388207Y-105379819D01*
X84864398Y-106379819D02*
X84864398Y-105379819D01*
X84864398Y-105379819D02*
X85102493Y-105379819D01*
X85102493Y-105379819D02*
X85245350Y-105427438D01*
X85245350Y-105427438D02*
X85340588Y-105522676D01*
X85340588Y-105522676D02*
X85388207Y-105617914D01*
X85388207Y-105617914D02*
X85435826Y-105808390D01*
X85435826Y-105808390D02*
X85435826Y-105951247D01*
X85435826Y-105951247D02*
X85388207Y-106141723D01*
X85388207Y-106141723D02*
X85340588Y-106236961D01*
X85340588Y-106236961D02*
X85245350Y-106332200D01*
X85245350Y-106332200D02*
X85102493Y-106379819D01*
X85102493Y-106379819D02*
X84864398Y-106379819D01*
X83759160Y-92865057D02*
X83806779Y-92817438D01*
X83806779Y-92817438D02*
X83902017Y-92769819D01*
X83902017Y-92769819D02*
X84140112Y-92769819D01*
X84140112Y-92769819D02*
X84235350Y-92817438D01*
X84235350Y-92817438D02*
X84282969Y-92865057D01*
X84282969Y-92865057D02*
X84330588Y-92960295D01*
X84330588Y-92960295D02*
X84330588Y-93055533D01*
X84330588Y-93055533D02*
X84282969Y-93198390D01*
X84282969Y-93198390D02*
X83711541Y-93769819D01*
X83711541Y-93769819D02*
X84330588Y-93769819D01*
X85235350Y-92769819D02*
X84759160Y-92769819D01*
X84759160Y-92769819D02*
X84711541Y-93246009D01*
X84711541Y-93246009D02*
X84759160Y-93198390D01*
X84759160Y-93198390D02*
X84854398Y-93150771D01*
X84854398Y-93150771D02*
X85092493Y-93150771D01*
X85092493Y-93150771D02*
X85187731Y-93198390D01*
X85187731Y-93198390D02*
X85235350Y-93246009D01*
X85235350Y-93246009D02*
X85282969Y-93341247D01*
X85282969Y-93341247D02*
X85282969Y-93579342D01*
X85282969Y-93579342D02*
X85235350Y-93674580D01*
X85235350Y-93674580D02*
X85187731Y-93722200D01*
X85187731Y-93722200D02*
X85092493Y-93769819D01*
X85092493Y-93769819D02*
X84854398Y-93769819D01*
X84854398Y-93769819D02*
X84759160Y-93722200D01*
X84759160Y-93722200D02*
X84711541Y-93674580D01*
X138097255Y-115559819D02*
X138192493Y-115559819D01*
X138192493Y-115559819D02*
X138287731Y-115607438D01*
X138287731Y-115607438D02*
X138335350Y-115655057D01*
X138335350Y-115655057D02*
X138382969Y-115750295D01*
X138382969Y-115750295D02*
X138430588Y-115940771D01*
X138430588Y-115940771D02*
X138430588Y-116178866D01*
X138430588Y-116178866D02*
X138382969Y-116369342D01*
X138382969Y-116369342D02*
X138335350Y-116464580D01*
X138335350Y-116464580D02*
X138287731Y-116512200D01*
X138287731Y-116512200D02*
X138192493Y-116559819D01*
X138192493Y-116559819D02*
X138097255Y-116559819D01*
X138097255Y-116559819D02*
X138002017Y-116512200D01*
X138002017Y-116512200D02*
X137954398Y-116464580D01*
X137954398Y-116464580D02*
X137906779Y-116369342D01*
X137906779Y-116369342D02*
X137859160Y-116178866D01*
X137859160Y-116178866D02*
X137859160Y-115940771D01*
X137859160Y-115940771D02*
X137906779Y-115750295D01*
X137906779Y-115750295D02*
X137954398Y-115655057D01*
X137954398Y-115655057D02*
X138002017Y-115607438D01*
X138002017Y-115607438D02*
X138097255Y-115559819D01*
X138763922Y-115559819D02*
X139430588Y-115559819D01*
X139430588Y-115559819D02*
X139002017Y-116559819D01*
X138097255Y-102799819D02*
X138192493Y-102799819D01*
X138192493Y-102799819D02*
X138287731Y-102847438D01*
X138287731Y-102847438D02*
X138335350Y-102895057D01*
X138335350Y-102895057D02*
X138382969Y-102990295D01*
X138382969Y-102990295D02*
X138430588Y-103180771D01*
X138430588Y-103180771D02*
X138430588Y-103418866D01*
X138430588Y-103418866D02*
X138382969Y-103609342D01*
X138382969Y-103609342D02*
X138335350Y-103704580D01*
X138335350Y-103704580D02*
X138287731Y-103752200D01*
X138287731Y-103752200D02*
X138192493Y-103799819D01*
X138192493Y-103799819D02*
X138097255Y-103799819D01*
X138097255Y-103799819D02*
X138002017Y-103752200D01*
X138002017Y-103752200D02*
X137954398Y-103704580D01*
X137954398Y-103704580D02*
X137906779Y-103609342D01*
X137906779Y-103609342D02*
X137859160Y-103418866D01*
X137859160Y-103418866D02*
X137859160Y-103180771D01*
X137859160Y-103180771D02*
X137906779Y-102990295D01*
X137906779Y-102990295D02*
X137954398Y-102895057D01*
X137954398Y-102895057D02*
X138002017Y-102847438D01*
X138002017Y-102847438D02*
X138097255Y-102799819D01*
X139287731Y-103133152D02*
X139287731Y-103799819D01*
X139049636Y-102752200D02*
X138811541Y-103466485D01*
X138811541Y-103466485D02*
X139430588Y-103466485D01*
D12*
X110079673Y-123867219D02*
X110079673Y-124676742D01*
X110079673Y-124676742D02*
X110127292Y-124771980D01*
X110127292Y-124771980D02*
X110174911Y-124819600D01*
X110174911Y-124819600D02*
X110270149Y-124867219D01*
X110270149Y-124867219D02*
X110460625Y-124867219D01*
X110460625Y-124867219D02*
X110555863Y-124819600D01*
X110555863Y-124819600D02*
X110603482Y-124771980D01*
X110603482Y-124771980D02*
X110651101Y-124676742D01*
X110651101Y-124676742D02*
X110651101Y-123867219D01*
X111079673Y-124819600D02*
X111222530Y-124867219D01*
X111222530Y-124867219D02*
X111460625Y-124867219D01*
X111460625Y-124867219D02*
X111555863Y-124819600D01*
X111555863Y-124819600D02*
X111603482Y-124771980D01*
X111603482Y-124771980D02*
X111651101Y-124676742D01*
X111651101Y-124676742D02*
X111651101Y-124581504D01*
X111651101Y-124581504D02*
X111603482Y-124486266D01*
X111603482Y-124486266D02*
X111555863Y-124438647D01*
X111555863Y-124438647D02*
X111460625Y-124391028D01*
X111460625Y-124391028D02*
X111270149Y-124343409D01*
X111270149Y-124343409D02*
X111174911Y-124295790D01*
X111174911Y-124295790D02*
X111127292Y-124248171D01*
X111127292Y-124248171D02*
X111079673Y-124152933D01*
X111079673Y-124152933D02*
X111079673Y-124057695D01*
X111079673Y-124057695D02*
X111127292Y-123962457D01*
X111127292Y-123962457D02*
X111174911Y-123914838D01*
X111174911Y-123914838D02*
X111270149Y-123867219D01*
X111270149Y-123867219D02*
X111508244Y-123867219D01*
X111508244Y-123867219D02*
X111651101Y-123914838D01*
X112413006Y-124343409D02*
X112555863Y-124391028D01*
X112555863Y-124391028D02*
X112603482Y-124438647D01*
X112603482Y-124438647D02*
X112651101Y-124533885D01*
X112651101Y-124533885D02*
X112651101Y-124676742D01*
X112651101Y-124676742D02*
X112603482Y-124771980D01*
X112603482Y-124771980D02*
X112555863Y-124819600D01*
X112555863Y-124819600D02*
X112460625Y-124867219D01*
X112460625Y-124867219D02*
X112079673Y-124867219D01*
X112079673Y-124867219D02*
X112079673Y-123867219D01*
X112079673Y-123867219D02*
X112413006Y-123867219D01*
X112413006Y-123867219D02*
X112508244Y-123914838D01*
X112508244Y-123914838D02*
X112555863Y-123962457D01*
X112555863Y-123962457D02*
X112603482Y-124057695D01*
X112603482Y-124057695D02*
X112603482Y-124152933D01*
X112603482Y-124152933D02*
X112555863Y-124248171D01*
X112555863Y-124248171D02*
X112508244Y-124295790D01*
X112508244Y-124295790D02*
X112413006Y-124343409D01*
X112413006Y-124343409D02*
X112079673Y-124343409D01*
D11*
X137859160Y-85145057D02*
X137906779Y-85097438D01*
X137906779Y-85097438D02*
X138002017Y-85049819D01*
X138002017Y-85049819D02*
X138240112Y-85049819D01*
X138240112Y-85049819D02*
X138335350Y-85097438D01*
X138335350Y-85097438D02*
X138382969Y-85145057D01*
X138382969Y-85145057D02*
X138430588Y-85240295D01*
X138430588Y-85240295D02*
X138430588Y-85335533D01*
X138430588Y-85335533D02*
X138382969Y-85478390D01*
X138382969Y-85478390D02*
X137811541Y-86049819D01*
X137811541Y-86049819D02*
X138430588Y-86049819D01*
X139382969Y-86049819D02*
X138811541Y-86049819D01*
X139097255Y-86049819D02*
X139097255Y-85049819D01*
X139097255Y-85049819D02*
X139002017Y-85192676D01*
X139002017Y-85192676D02*
X138906779Y-85287914D01*
X138906779Y-85287914D02*
X138811541Y-85335533D01*
X138097255Y-95339819D02*
X138192493Y-95339819D01*
X138192493Y-95339819D02*
X138287731Y-95387438D01*
X138287731Y-95387438D02*
X138335350Y-95435057D01*
X138335350Y-95435057D02*
X138382969Y-95530295D01*
X138382969Y-95530295D02*
X138430588Y-95720771D01*
X138430588Y-95720771D02*
X138430588Y-95958866D01*
X138430588Y-95958866D02*
X138382969Y-96149342D01*
X138382969Y-96149342D02*
X138335350Y-96244580D01*
X138335350Y-96244580D02*
X138287731Y-96292200D01*
X138287731Y-96292200D02*
X138192493Y-96339819D01*
X138192493Y-96339819D02*
X138097255Y-96339819D01*
X138097255Y-96339819D02*
X138002017Y-96292200D01*
X138002017Y-96292200D02*
X137954398Y-96244580D01*
X137954398Y-96244580D02*
X137906779Y-96149342D01*
X137906779Y-96149342D02*
X137859160Y-95958866D01*
X137859160Y-95958866D02*
X137859160Y-95720771D01*
X137859160Y-95720771D02*
X137906779Y-95530295D01*
X137906779Y-95530295D02*
X137954398Y-95435057D01*
X137954398Y-95435057D02*
X138002017Y-95387438D01*
X138002017Y-95387438D02*
X138097255Y-95339819D01*
X139335350Y-95339819D02*
X138859160Y-95339819D01*
X138859160Y-95339819D02*
X138811541Y-95816009D01*
X138811541Y-95816009D02*
X138859160Y-95768390D01*
X138859160Y-95768390D02*
X138954398Y-95720771D01*
X138954398Y-95720771D02*
X139192493Y-95720771D01*
X139192493Y-95720771D02*
X139287731Y-95768390D01*
X139287731Y-95768390D02*
X139335350Y-95816009D01*
X139335350Y-95816009D02*
X139382969Y-95911247D01*
X139382969Y-95911247D02*
X139382969Y-96149342D01*
X139382969Y-96149342D02*
X139335350Y-96244580D01*
X139335350Y-96244580D02*
X139287731Y-96292200D01*
X139287731Y-96292200D02*
X139192493Y-96339819D01*
X139192493Y-96339819D02*
X138954398Y-96339819D01*
X138954398Y-96339819D02*
X138859160Y-96292200D01*
X138859160Y-96292200D02*
X138811541Y-96244580D01*
X138097255Y-112869819D02*
X138192493Y-112869819D01*
X138192493Y-112869819D02*
X138287731Y-112917438D01*
X138287731Y-112917438D02*
X138335350Y-112965057D01*
X138335350Y-112965057D02*
X138382969Y-113060295D01*
X138382969Y-113060295D02*
X138430588Y-113250771D01*
X138430588Y-113250771D02*
X138430588Y-113488866D01*
X138430588Y-113488866D02*
X138382969Y-113679342D01*
X138382969Y-113679342D02*
X138335350Y-113774580D01*
X138335350Y-113774580D02*
X138287731Y-113822200D01*
X138287731Y-113822200D02*
X138192493Y-113869819D01*
X138192493Y-113869819D02*
X138097255Y-113869819D01*
X138097255Y-113869819D02*
X138002017Y-113822200D01*
X138002017Y-113822200D02*
X137954398Y-113774580D01*
X137954398Y-113774580D02*
X137906779Y-113679342D01*
X137906779Y-113679342D02*
X137859160Y-113488866D01*
X137859160Y-113488866D02*
X137859160Y-113250771D01*
X137859160Y-113250771D02*
X137906779Y-113060295D01*
X137906779Y-113060295D02*
X137954398Y-112965057D01*
X137954398Y-112965057D02*
X138002017Y-112917438D01*
X138002017Y-112917438D02*
X138097255Y-112869819D01*
X139002017Y-113298390D02*
X138906779Y-113250771D01*
X138906779Y-113250771D02*
X138859160Y-113203152D01*
X138859160Y-113203152D02*
X138811541Y-113107914D01*
X138811541Y-113107914D02*
X138811541Y-113060295D01*
X138811541Y-113060295D02*
X138859160Y-112965057D01*
X138859160Y-112965057D02*
X138906779Y-112917438D01*
X138906779Y-112917438D02*
X139002017Y-112869819D01*
X139002017Y-112869819D02*
X139192493Y-112869819D01*
X139192493Y-112869819D02*
X139287731Y-112917438D01*
X139287731Y-112917438D02*
X139335350Y-112965057D01*
X139335350Y-112965057D02*
X139382969Y-113060295D01*
X139382969Y-113060295D02*
X139382969Y-113107914D01*
X139382969Y-113107914D02*
X139335350Y-113203152D01*
X139335350Y-113203152D02*
X139287731Y-113250771D01*
X139287731Y-113250771D02*
X139192493Y-113298390D01*
X139192493Y-113298390D02*
X139002017Y-113298390D01*
X139002017Y-113298390D02*
X138906779Y-113346009D01*
X138906779Y-113346009D02*
X138859160Y-113393628D01*
X138859160Y-113393628D02*
X138811541Y-113488866D01*
X138811541Y-113488866D02*
X138811541Y-113679342D01*
X138811541Y-113679342D02*
X138859160Y-113774580D01*
X138859160Y-113774580D02*
X138906779Y-113822200D01*
X138906779Y-113822200D02*
X139002017Y-113869819D01*
X139002017Y-113869819D02*
X139192493Y-113869819D01*
X139192493Y-113869819D02*
X139287731Y-113822200D01*
X139287731Y-113822200D02*
X139335350Y-113774580D01*
X139335350Y-113774580D02*
X139382969Y-113679342D01*
X139382969Y-113679342D02*
X139382969Y-113488866D01*
X139382969Y-113488866D02*
X139335350Y-113393628D01*
X139335350Y-113393628D02*
X139287731Y-113346009D01*
X139287731Y-113346009D02*
X139192493Y-113298390D01*
X83641541Y-85139819D02*
X84260588Y-85139819D01*
X84260588Y-85139819D02*
X83927255Y-85520771D01*
X83927255Y-85520771D02*
X84070112Y-85520771D01*
X84070112Y-85520771D02*
X84165350Y-85568390D01*
X84165350Y-85568390D02*
X84212969Y-85616009D01*
X84212969Y-85616009D02*
X84260588Y-85711247D01*
X84260588Y-85711247D02*
X84260588Y-85949342D01*
X84260588Y-85949342D02*
X84212969Y-86044580D01*
X84212969Y-86044580D02*
X84165350Y-86092200D01*
X84165350Y-86092200D02*
X84070112Y-86139819D01*
X84070112Y-86139819D02*
X83784398Y-86139819D01*
X83784398Y-86139819D02*
X83689160Y-86092200D01*
X83689160Y-86092200D02*
X83641541Y-86044580D01*
X85165350Y-85139819D02*
X84689160Y-85139819D01*
X84689160Y-85139819D02*
X84641541Y-85616009D01*
X84641541Y-85616009D02*
X84689160Y-85568390D01*
X84689160Y-85568390D02*
X84784398Y-85520771D01*
X84784398Y-85520771D02*
X85022493Y-85520771D01*
X85022493Y-85520771D02*
X85117731Y-85568390D01*
X85117731Y-85568390D02*
X85165350Y-85616009D01*
X85165350Y-85616009D02*
X85212969Y-85711247D01*
X85212969Y-85711247D02*
X85212969Y-85949342D01*
X85212969Y-85949342D02*
X85165350Y-86044580D01*
X85165350Y-86044580D02*
X85117731Y-86092200D01*
X85117731Y-86092200D02*
X85022493Y-86139819D01*
X85022493Y-86139819D02*
X84784398Y-86139819D01*
X84784398Y-86139819D02*
X84689160Y-86092200D01*
X84689160Y-86092200D02*
X84641541Y-86044580D01*
X83789160Y-95235057D02*
X83836779Y-95187438D01*
X83836779Y-95187438D02*
X83932017Y-95139819D01*
X83932017Y-95139819D02*
X84170112Y-95139819D01*
X84170112Y-95139819D02*
X84265350Y-95187438D01*
X84265350Y-95187438D02*
X84312969Y-95235057D01*
X84312969Y-95235057D02*
X84360588Y-95330295D01*
X84360588Y-95330295D02*
X84360588Y-95425533D01*
X84360588Y-95425533D02*
X84312969Y-95568390D01*
X84312969Y-95568390D02*
X83741541Y-96139819D01*
X83741541Y-96139819D02*
X84360588Y-96139819D01*
X85217731Y-95139819D02*
X85027255Y-95139819D01*
X85027255Y-95139819D02*
X84932017Y-95187438D01*
X84932017Y-95187438D02*
X84884398Y-95235057D01*
X84884398Y-95235057D02*
X84789160Y-95377914D01*
X84789160Y-95377914D02*
X84741541Y-95568390D01*
X84741541Y-95568390D02*
X84741541Y-95949342D01*
X84741541Y-95949342D02*
X84789160Y-96044580D01*
X84789160Y-96044580D02*
X84836779Y-96092200D01*
X84836779Y-96092200D02*
X84932017Y-96139819D01*
X84932017Y-96139819D02*
X85122493Y-96139819D01*
X85122493Y-96139819D02*
X85217731Y-96092200D01*
X85217731Y-96092200D02*
X85265350Y-96044580D01*
X85265350Y-96044580D02*
X85312969Y-95949342D01*
X85312969Y-95949342D02*
X85312969Y-95711247D01*
X85312969Y-95711247D02*
X85265350Y-95616009D01*
X85265350Y-95616009D02*
X85217731Y-95568390D01*
X85217731Y-95568390D02*
X85122493Y-95520771D01*
X85122493Y-95520771D02*
X84932017Y-95520771D01*
X84932017Y-95520771D02*
X84836779Y-95568390D01*
X84836779Y-95568390D02*
X84789160Y-95616009D01*
X84789160Y-95616009D02*
X84741541Y-95711247D01*
X95512969Y-125079819D02*
X95036779Y-125079819D01*
X95036779Y-125079819D02*
X94989160Y-125556009D01*
X94989160Y-125556009D02*
X95036779Y-125508390D01*
X95036779Y-125508390D02*
X95132017Y-125460771D01*
X95132017Y-125460771D02*
X95370112Y-125460771D01*
X95370112Y-125460771D02*
X95465350Y-125508390D01*
X95465350Y-125508390D02*
X95512969Y-125556009D01*
X95512969Y-125556009D02*
X95560588Y-125651247D01*
X95560588Y-125651247D02*
X95560588Y-125889342D01*
X95560588Y-125889342D02*
X95512969Y-125984580D01*
X95512969Y-125984580D02*
X95465350Y-126032200D01*
X95465350Y-126032200D02*
X95370112Y-126079819D01*
X95370112Y-126079819D02*
X95132017Y-126079819D01*
X95132017Y-126079819D02*
X95036779Y-126032200D01*
X95036779Y-126032200D02*
X94989160Y-125984580D01*
X95846303Y-125079819D02*
X96179636Y-126079819D01*
X96179636Y-126079819D02*
X96512969Y-125079819D01*
X97036779Y-125079819D02*
X97132017Y-125079819D01*
X97132017Y-125079819D02*
X97227255Y-125127438D01*
X97227255Y-125127438D02*
X97274874Y-125175057D01*
X97274874Y-125175057D02*
X97322493Y-125270295D01*
X97322493Y-125270295D02*
X97370112Y-125460771D01*
X97370112Y-125460771D02*
X97370112Y-125698866D01*
X97370112Y-125698866D02*
X97322493Y-125889342D01*
X97322493Y-125889342D02*
X97274874Y-125984580D01*
X97274874Y-125984580D02*
X97227255Y-126032200D01*
X97227255Y-126032200D02*
X97132017Y-126079819D01*
X97132017Y-126079819D02*
X97036779Y-126079819D01*
X97036779Y-126079819D02*
X96941541Y-126032200D01*
X96941541Y-126032200D02*
X96893922Y-125984580D01*
X96893922Y-125984580D02*
X96846303Y-125889342D01*
X96846303Y-125889342D02*
X96798684Y-125698866D01*
X96798684Y-125698866D02*
X96798684Y-125460771D01*
X96798684Y-125460771D02*
X96846303Y-125270295D01*
X96846303Y-125270295D02*
X96893922Y-125175057D01*
X96893922Y-125175057D02*
X96941541Y-125127438D01*
X96941541Y-125127438D02*
X97036779Y-125079819D01*
X138097255Y-107819819D02*
X138192493Y-107819819D01*
X138192493Y-107819819D02*
X138287731Y-107867438D01*
X138287731Y-107867438D02*
X138335350Y-107915057D01*
X138335350Y-107915057D02*
X138382969Y-108010295D01*
X138382969Y-108010295D02*
X138430588Y-108200771D01*
X138430588Y-108200771D02*
X138430588Y-108438866D01*
X138430588Y-108438866D02*
X138382969Y-108629342D01*
X138382969Y-108629342D02*
X138335350Y-108724580D01*
X138335350Y-108724580D02*
X138287731Y-108772200D01*
X138287731Y-108772200D02*
X138192493Y-108819819D01*
X138192493Y-108819819D02*
X138097255Y-108819819D01*
X138097255Y-108819819D02*
X138002017Y-108772200D01*
X138002017Y-108772200D02*
X137954398Y-108724580D01*
X137954398Y-108724580D02*
X137906779Y-108629342D01*
X137906779Y-108629342D02*
X137859160Y-108438866D01*
X137859160Y-108438866D02*
X137859160Y-108200771D01*
X137859160Y-108200771D02*
X137906779Y-108010295D01*
X137906779Y-108010295D02*
X137954398Y-107915057D01*
X137954398Y-107915057D02*
X138002017Y-107867438D01*
X138002017Y-107867438D02*
X138097255Y-107819819D01*
X138811541Y-107915057D02*
X138859160Y-107867438D01*
X138859160Y-107867438D02*
X138954398Y-107819819D01*
X138954398Y-107819819D02*
X139192493Y-107819819D01*
X139192493Y-107819819D02*
X139287731Y-107867438D01*
X139287731Y-107867438D02*
X139335350Y-107915057D01*
X139335350Y-107915057D02*
X139382969Y-108010295D01*
X139382969Y-108010295D02*
X139382969Y-108105533D01*
X139382969Y-108105533D02*
X139335350Y-108248390D01*
X139335350Y-108248390D02*
X138763922Y-108819819D01*
X138763922Y-108819819D02*
X139382969Y-108819819D01*
X138430588Y-93729819D02*
X137859160Y-93729819D01*
X138144874Y-93729819D02*
X138144874Y-92729819D01*
X138144874Y-92729819D02*
X138049636Y-92872676D01*
X138049636Y-92872676D02*
X137954398Y-92967914D01*
X137954398Y-92967914D02*
X137859160Y-93015533D01*
X139002017Y-93158390D02*
X138906779Y-93110771D01*
X138906779Y-93110771D02*
X138859160Y-93063152D01*
X138859160Y-93063152D02*
X138811541Y-92967914D01*
X138811541Y-92967914D02*
X138811541Y-92920295D01*
X138811541Y-92920295D02*
X138859160Y-92825057D01*
X138859160Y-92825057D02*
X138906779Y-92777438D01*
X138906779Y-92777438D02*
X139002017Y-92729819D01*
X139002017Y-92729819D02*
X139192493Y-92729819D01*
X139192493Y-92729819D02*
X139287731Y-92777438D01*
X139287731Y-92777438D02*
X139335350Y-92825057D01*
X139335350Y-92825057D02*
X139382969Y-92920295D01*
X139382969Y-92920295D02*
X139382969Y-92967914D01*
X139382969Y-92967914D02*
X139335350Y-93063152D01*
X139335350Y-93063152D02*
X139287731Y-93110771D01*
X139287731Y-93110771D02*
X139192493Y-93158390D01*
X139192493Y-93158390D02*
X139002017Y-93158390D01*
X139002017Y-93158390D02*
X138906779Y-93206009D01*
X138906779Y-93206009D02*
X138859160Y-93253628D01*
X138859160Y-93253628D02*
X138811541Y-93348866D01*
X138811541Y-93348866D02*
X138811541Y-93539342D01*
X138811541Y-93539342D02*
X138859160Y-93634580D01*
X138859160Y-93634580D02*
X138906779Y-93682200D01*
X138906779Y-93682200D02*
X139002017Y-93729819D01*
X139002017Y-93729819D02*
X139192493Y-93729819D01*
X139192493Y-93729819D02*
X139287731Y-93682200D01*
X139287731Y-93682200D02*
X139335350Y-93634580D01*
X139335350Y-93634580D02*
X139382969Y-93539342D01*
X139382969Y-93539342D02*
X139382969Y-93348866D01*
X139382969Y-93348866D02*
X139335350Y-93253628D01*
X139335350Y-93253628D02*
X139287731Y-93206009D01*
X139287731Y-93206009D02*
X139192493Y-93158390D01*
X84300588Y-109099819D02*
X83729160Y-109099819D01*
X84014874Y-109099819D02*
X84014874Y-108099819D01*
X84014874Y-108099819D02*
X83919636Y-108242676D01*
X83919636Y-108242676D02*
X83824398Y-108337914D01*
X83824398Y-108337914D02*
X83729160Y-108385533D01*
X84633922Y-108099819D02*
X85252969Y-108099819D01*
X85252969Y-108099819D02*
X84919636Y-108480771D01*
X84919636Y-108480771D02*
X85062493Y-108480771D01*
X85062493Y-108480771D02*
X85157731Y-108528390D01*
X85157731Y-108528390D02*
X85205350Y-108576009D01*
X85205350Y-108576009D02*
X85252969Y-108671247D01*
X85252969Y-108671247D02*
X85252969Y-108909342D01*
X85252969Y-108909342D02*
X85205350Y-109004580D01*
X85205350Y-109004580D02*
X85157731Y-109052200D01*
X85157731Y-109052200D02*
X85062493Y-109099819D01*
X85062493Y-109099819D02*
X84776779Y-109099819D01*
X84776779Y-109099819D02*
X84681541Y-109052200D01*
X84681541Y-109052200D02*
X84633922Y-109004580D01*
X138380588Y-111519819D02*
X137809160Y-111519819D01*
X138094874Y-111519819D02*
X138094874Y-110519819D01*
X138094874Y-110519819D02*
X137999636Y-110662676D01*
X137999636Y-110662676D02*
X137904398Y-110757914D01*
X137904398Y-110757914D02*
X137809160Y-110805533D01*
X139285350Y-110519819D02*
X138809160Y-110519819D01*
X138809160Y-110519819D02*
X138761541Y-110996009D01*
X138761541Y-110996009D02*
X138809160Y-110948390D01*
X138809160Y-110948390D02*
X138904398Y-110900771D01*
X138904398Y-110900771D02*
X139142493Y-110900771D01*
X139142493Y-110900771D02*
X139237731Y-110948390D01*
X139237731Y-110948390D02*
X139285350Y-110996009D01*
X139285350Y-110996009D02*
X139332969Y-111091247D01*
X139332969Y-111091247D02*
X139332969Y-111329342D01*
X139332969Y-111329342D02*
X139285350Y-111424580D01*
X139285350Y-111424580D02*
X139237731Y-111472200D01*
X139237731Y-111472200D02*
X139142493Y-111519819D01*
X139142493Y-111519819D02*
X138904398Y-111519819D01*
X138904398Y-111519819D02*
X138809160Y-111472200D01*
X138809160Y-111472200D02*
X138761541Y-111424580D01*
X84340588Y-113629819D02*
X83769160Y-113629819D01*
X84054874Y-113629819D02*
X84054874Y-112629819D01*
X84054874Y-112629819D02*
X83959636Y-112772676D01*
X83959636Y-112772676D02*
X83864398Y-112867914D01*
X83864398Y-112867914D02*
X83769160Y-112915533D01*
X84959636Y-112629819D02*
X85054874Y-112629819D01*
X85054874Y-112629819D02*
X85150112Y-112677438D01*
X85150112Y-112677438D02*
X85197731Y-112725057D01*
X85197731Y-112725057D02*
X85245350Y-112820295D01*
X85245350Y-112820295D02*
X85292969Y-113010771D01*
X85292969Y-113010771D02*
X85292969Y-113248866D01*
X85292969Y-113248866D02*
X85245350Y-113439342D01*
X85245350Y-113439342D02*
X85197731Y-113534580D01*
X85197731Y-113534580D02*
X85150112Y-113582200D01*
X85150112Y-113582200D02*
X85054874Y-113629819D01*
X85054874Y-113629819D02*
X84959636Y-113629819D01*
X84959636Y-113629819D02*
X84864398Y-113582200D01*
X84864398Y-113582200D02*
X84816779Y-113534580D01*
X84816779Y-113534580D02*
X84769160Y-113439342D01*
X84769160Y-113439342D02*
X84721541Y-113248866D01*
X84721541Y-113248866D02*
X84721541Y-113010771D01*
X84721541Y-113010771D02*
X84769160Y-112820295D01*
X84769160Y-112820295D02*
X84816779Y-112725057D01*
X84816779Y-112725057D02*
X84864398Y-112677438D01*
X84864398Y-112677438D02*
X84959636Y-112629819D01*
X83681541Y-77899819D02*
X84300588Y-77899819D01*
X84300588Y-77899819D02*
X83967255Y-78280771D01*
X83967255Y-78280771D02*
X84110112Y-78280771D01*
X84110112Y-78280771D02*
X84205350Y-78328390D01*
X84205350Y-78328390D02*
X84252969Y-78376009D01*
X84252969Y-78376009D02*
X84300588Y-78471247D01*
X84300588Y-78471247D02*
X84300588Y-78709342D01*
X84300588Y-78709342D02*
X84252969Y-78804580D01*
X84252969Y-78804580D02*
X84205350Y-78852200D01*
X84205350Y-78852200D02*
X84110112Y-78899819D01*
X84110112Y-78899819D02*
X83824398Y-78899819D01*
X83824398Y-78899819D02*
X83729160Y-78852200D01*
X83729160Y-78852200D02*
X83681541Y-78804580D01*
X85157731Y-77899819D02*
X84967255Y-77899819D01*
X84967255Y-77899819D02*
X84872017Y-77947438D01*
X84872017Y-77947438D02*
X84824398Y-77995057D01*
X84824398Y-77995057D02*
X84729160Y-78137914D01*
X84729160Y-78137914D02*
X84681541Y-78328390D01*
X84681541Y-78328390D02*
X84681541Y-78709342D01*
X84681541Y-78709342D02*
X84729160Y-78804580D01*
X84729160Y-78804580D02*
X84776779Y-78852200D01*
X84776779Y-78852200D02*
X84872017Y-78899819D01*
X84872017Y-78899819D02*
X85062493Y-78899819D01*
X85062493Y-78899819D02*
X85157731Y-78852200D01*
X85157731Y-78852200D02*
X85205350Y-78804580D01*
X85205350Y-78804580D02*
X85252969Y-78709342D01*
X85252969Y-78709342D02*
X85252969Y-78471247D01*
X85252969Y-78471247D02*
X85205350Y-78376009D01*
X85205350Y-78376009D02*
X85157731Y-78328390D01*
X85157731Y-78328390D02*
X85062493Y-78280771D01*
X85062493Y-78280771D02*
X84872017Y-78280771D01*
X84872017Y-78280771D02*
X84776779Y-78328390D01*
X84776779Y-78328390D02*
X84729160Y-78376009D01*
X84729160Y-78376009D02*
X84681541Y-78471247D01*
X138430588Y-91419819D02*
X137859160Y-91419819D01*
X138144874Y-91419819D02*
X138144874Y-90419819D01*
X138144874Y-90419819D02*
X138049636Y-90562676D01*
X138049636Y-90562676D02*
X137954398Y-90657914D01*
X137954398Y-90657914D02*
X137859160Y-90705533D01*
X138906779Y-91419819D02*
X139097255Y-91419819D01*
X139097255Y-91419819D02*
X139192493Y-91372200D01*
X139192493Y-91372200D02*
X139240112Y-91324580D01*
X139240112Y-91324580D02*
X139335350Y-91181723D01*
X139335350Y-91181723D02*
X139382969Y-90991247D01*
X139382969Y-90991247D02*
X139382969Y-90610295D01*
X139382969Y-90610295D02*
X139335350Y-90515057D01*
X139335350Y-90515057D02*
X139287731Y-90467438D01*
X139287731Y-90467438D02*
X139192493Y-90419819D01*
X139192493Y-90419819D02*
X139002017Y-90419819D01*
X139002017Y-90419819D02*
X138906779Y-90467438D01*
X138906779Y-90467438D02*
X138859160Y-90515057D01*
X138859160Y-90515057D02*
X138811541Y-90610295D01*
X138811541Y-90610295D02*
X138811541Y-90848390D01*
X138811541Y-90848390D02*
X138859160Y-90943628D01*
X138859160Y-90943628D02*
X138906779Y-90991247D01*
X138906779Y-90991247D02*
X139002017Y-91038866D01*
X139002017Y-91038866D02*
X139192493Y-91038866D01*
X139192493Y-91038866D02*
X139287731Y-90991247D01*
X139287731Y-90991247D02*
X139335350Y-90943628D01*
X139335350Y-90943628D02*
X139382969Y-90848390D01*
X138097255Y-118079819D02*
X138192493Y-118079819D01*
X138192493Y-118079819D02*
X138287731Y-118127438D01*
X138287731Y-118127438D02*
X138335350Y-118175057D01*
X138335350Y-118175057D02*
X138382969Y-118270295D01*
X138382969Y-118270295D02*
X138430588Y-118460771D01*
X138430588Y-118460771D02*
X138430588Y-118698866D01*
X138430588Y-118698866D02*
X138382969Y-118889342D01*
X138382969Y-118889342D02*
X138335350Y-118984580D01*
X138335350Y-118984580D02*
X138287731Y-119032200D01*
X138287731Y-119032200D02*
X138192493Y-119079819D01*
X138192493Y-119079819D02*
X138097255Y-119079819D01*
X138097255Y-119079819D02*
X138002017Y-119032200D01*
X138002017Y-119032200D02*
X137954398Y-118984580D01*
X137954398Y-118984580D02*
X137906779Y-118889342D01*
X137906779Y-118889342D02*
X137859160Y-118698866D01*
X137859160Y-118698866D02*
X137859160Y-118460771D01*
X137859160Y-118460771D02*
X137906779Y-118270295D01*
X137906779Y-118270295D02*
X137954398Y-118175057D01*
X137954398Y-118175057D02*
X138002017Y-118127438D01*
X138002017Y-118127438D02*
X138097255Y-118079819D01*
X139287731Y-118079819D02*
X139097255Y-118079819D01*
X139097255Y-118079819D02*
X139002017Y-118127438D01*
X139002017Y-118127438D02*
X138954398Y-118175057D01*
X138954398Y-118175057D02*
X138859160Y-118317914D01*
X138859160Y-118317914D02*
X138811541Y-118508390D01*
X138811541Y-118508390D02*
X138811541Y-118889342D01*
X138811541Y-118889342D02*
X138859160Y-118984580D01*
X138859160Y-118984580D02*
X138906779Y-119032200D01*
X138906779Y-119032200D02*
X139002017Y-119079819D01*
X139002017Y-119079819D02*
X139192493Y-119079819D01*
X139192493Y-119079819D02*
X139287731Y-119032200D01*
X139287731Y-119032200D02*
X139335350Y-118984580D01*
X139335350Y-118984580D02*
X139382969Y-118889342D01*
X139382969Y-118889342D02*
X139382969Y-118651247D01*
X139382969Y-118651247D02*
X139335350Y-118556009D01*
X139335350Y-118556009D02*
X139287731Y-118508390D01*
X139287731Y-118508390D02*
X139192493Y-118460771D01*
X139192493Y-118460771D02*
X139002017Y-118460771D01*
X139002017Y-118460771D02*
X138906779Y-118508390D01*
X138906779Y-118508390D02*
X138859160Y-118556009D01*
X138859160Y-118556009D02*
X138811541Y-118651247D01*
X83977255Y-110359819D02*
X84072493Y-110359819D01*
X84072493Y-110359819D02*
X84167731Y-110407438D01*
X84167731Y-110407438D02*
X84215350Y-110455057D01*
X84215350Y-110455057D02*
X84262969Y-110550295D01*
X84262969Y-110550295D02*
X84310588Y-110740771D01*
X84310588Y-110740771D02*
X84310588Y-110978866D01*
X84310588Y-110978866D02*
X84262969Y-111169342D01*
X84262969Y-111169342D02*
X84215350Y-111264580D01*
X84215350Y-111264580D02*
X84167731Y-111312200D01*
X84167731Y-111312200D02*
X84072493Y-111359819D01*
X84072493Y-111359819D02*
X83977255Y-111359819D01*
X83977255Y-111359819D02*
X83882017Y-111312200D01*
X83882017Y-111312200D02*
X83834398Y-111264580D01*
X83834398Y-111264580D02*
X83786779Y-111169342D01*
X83786779Y-111169342D02*
X83739160Y-110978866D01*
X83739160Y-110978866D02*
X83739160Y-110740771D01*
X83739160Y-110740771D02*
X83786779Y-110550295D01*
X83786779Y-110550295D02*
X83834398Y-110455057D01*
X83834398Y-110455057D02*
X83882017Y-110407438D01*
X83882017Y-110407438D02*
X83977255Y-110359819D01*
X84786779Y-111359819D02*
X84977255Y-111359819D01*
X84977255Y-111359819D02*
X85072493Y-111312200D01*
X85072493Y-111312200D02*
X85120112Y-111264580D01*
X85120112Y-111264580D02*
X85215350Y-111121723D01*
X85215350Y-111121723D02*
X85262969Y-110931247D01*
X85262969Y-110931247D02*
X85262969Y-110550295D01*
X85262969Y-110550295D02*
X85215350Y-110455057D01*
X85215350Y-110455057D02*
X85167731Y-110407438D01*
X85167731Y-110407438D02*
X85072493Y-110359819D01*
X85072493Y-110359819D02*
X84882017Y-110359819D01*
X84882017Y-110359819D02*
X84786779Y-110407438D01*
X84786779Y-110407438D02*
X84739160Y-110455057D01*
X84739160Y-110455057D02*
X84691541Y-110550295D01*
X84691541Y-110550295D02*
X84691541Y-110788390D01*
X84691541Y-110788390D02*
X84739160Y-110883628D01*
X84739160Y-110883628D02*
X84786779Y-110931247D01*
X84786779Y-110931247D02*
X84882017Y-110978866D01*
X84882017Y-110978866D02*
X85072493Y-110978866D01*
X85072493Y-110978866D02*
X85167731Y-110931247D01*
X85167731Y-110931247D02*
X85215350Y-110883628D01*
X85215350Y-110883628D02*
X85262969Y-110788390D01*
X138430588Y-98819819D02*
X137859160Y-98819819D01*
X138144874Y-98819819D02*
X138144874Y-97819819D01*
X138144874Y-97819819D02*
X138049636Y-97962676D01*
X138049636Y-97962676D02*
X137954398Y-98057914D01*
X137954398Y-98057914D02*
X137859160Y-98105533D01*
X138763922Y-97819819D02*
X139430588Y-97819819D01*
X139430588Y-97819819D02*
X139002017Y-98819819D01*
X137859160Y-75145057D02*
X137906779Y-75097438D01*
X137906779Y-75097438D02*
X138002017Y-75049819D01*
X138002017Y-75049819D02*
X138240112Y-75049819D01*
X138240112Y-75049819D02*
X138335350Y-75097438D01*
X138335350Y-75097438D02*
X138382969Y-75145057D01*
X138382969Y-75145057D02*
X138430588Y-75240295D01*
X138430588Y-75240295D02*
X138430588Y-75335533D01*
X138430588Y-75335533D02*
X138382969Y-75478390D01*
X138382969Y-75478390D02*
X137811541Y-76049819D01*
X137811541Y-76049819D02*
X138430588Y-76049819D01*
X138763922Y-75049819D02*
X139382969Y-75049819D01*
X139382969Y-75049819D02*
X139049636Y-75430771D01*
X139049636Y-75430771D02*
X139192493Y-75430771D01*
X139192493Y-75430771D02*
X139287731Y-75478390D01*
X139287731Y-75478390D02*
X139335350Y-75526009D01*
X139335350Y-75526009D02*
X139382969Y-75621247D01*
X139382969Y-75621247D02*
X139382969Y-75859342D01*
X139382969Y-75859342D02*
X139335350Y-75954580D01*
X139335350Y-75954580D02*
X139287731Y-76002200D01*
X139287731Y-76002200D02*
X139192493Y-76049819D01*
X139192493Y-76049819D02*
X138906779Y-76049819D01*
X138906779Y-76049819D02*
X138811541Y-76002200D01*
X138811541Y-76002200D02*
X138763922Y-75954580D01*
X83681541Y-80379819D02*
X84300588Y-80379819D01*
X84300588Y-80379819D02*
X83967255Y-80760771D01*
X83967255Y-80760771D02*
X84110112Y-80760771D01*
X84110112Y-80760771D02*
X84205350Y-80808390D01*
X84205350Y-80808390D02*
X84252969Y-80856009D01*
X84252969Y-80856009D02*
X84300588Y-80951247D01*
X84300588Y-80951247D02*
X84300588Y-81189342D01*
X84300588Y-81189342D02*
X84252969Y-81284580D01*
X84252969Y-81284580D02*
X84205350Y-81332200D01*
X84205350Y-81332200D02*
X84110112Y-81379819D01*
X84110112Y-81379819D02*
X83824398Y-81379819D01*
X83824398Y-81379819D02*
X83729160Y-81332200D01*
X83729160Y-81332200D02*
X83681541Y-81284580D01*
X84776779Y-81379819D02*
X84967255Y-81379819D01*
X84967255Y-81379819D02*
X85062493Y-81332200D01*
X85062493Y-81332200D02*
X85110112Y-81284580D01*
X85110112Y-81284580D02*
X85205350Y-81141723D01*
X85205350Y-81141723D02*
X85252969Y-80951247D01*
X85252969Y-80951247D02*
X85252969Y-80570295D01*
X85252969Y-80570295D02*
X85205350Y-80475057D01*
X85205350Y-80475057D02*
X85157731Y-80427438D01*
X85157731Y-80427438D02*
X85062493Y-80379819D01*
X85062493Y-80379819D02*
X84872017Y-80379819D01*
X84872017Y-80379819D02*
X84776779Y-80427438D01*
X84776779Y-80427438D02*
X84729160Y-80475057D01*
X84729160Y-80475057D02*
X84681541Y-80570295D01*
X84681541Y-80570295D02*
X84681541Y-80808390D01*
X84681541Y-80808390D02*
X84729160Y-80903628D01*
X84729160Y-80903628D02*
X84776779Y-80951247D01*
X84776779Y-80951247D02*
X84872017Y-80998866D01*
X84872017Y-80998866D02*
X85062493Y-80998866D01*
X85062493Y-80998866D02*
X85157731Y-80951247D01*
X85157731Y-80951247D02*
X85205350Y-80903628D01*
X85205350Y-80903628D02*
X85252969Y-80808390D01*
X138430588Y-101249819D02*
X137859160Y-101249819D01*
X138144874Y-101249819D02*
X138144874Y-100249819D01*
X138144874Y-100249819D02*
X138049636Y-100392676D01*
X138049636Y-100392676D02*
X137954398Y-100487914D01*
X137954398Y-100487914D02*
X137859160Y-100535533D01*
X139287731Y-100249819D02*
X139097255Y-100249819D01*
X139097255Y-100249819D02*
X139002017Y-100297438D01*
X139002017Y-100297438D02*
X138954398Y-100345057D01*
X138954398Y-100345057D02*
X138859160Y-100487914D01*
X138859160Y-100487914D02*
X138811541Y-100678390D01*
X138811541Y-100678390D02*
X138811541Y-101059342D01*
X138811541Y-101059342D02*
X138859160Y-101154580D01*
X138859160Y-101154580D02*
X138906779Y-101202200D01*
X138906779Y-101202200D02*
X139002017Y-101249819D01*
X139002017Y-101249819D02*
X139192493Y-101249819D01*
X139192493Y-101249819D02*
X139287731Y-101202200D01*
X139287731Y-101202200D02*
X139335350Y-101154580D01*
X139335350Y-101154580D02*
X139382969Y-101059342D01*
X139382969Y-101059342D02*
X139382969Y-100821247D01*
X139382969Y-100821247D02*
X139335350Y-100726009D01*
X139335350Y-100726009D02*
X139287731Y-100678390D01*
X139287731Y-100678390D02*
X139192493Y-100630771D01*
X139192493Y-100630771D02*
X139002017Y-100630771D01*
X139002017Y-100630771D02*
X138906779Y-100678390D01*
X138906779Y-100678390D02*
X138859160Y-100726009D01*
X138859160Y-100726009D02*
X138811541Y-100821247D01*
X138097255Y-80099819D02*
X138192493Y-80099819D01*
X138192493Y-80099819D02*
X138287731Y-80147438D01*
X138287731Y-80147438D02*
X138335350Y-80195057D01*
X138335350Y-80195057D02*
X138382969Y-80290295D01*
X138382969Y-80290295D02*
X138430588Y-80480771D01*
X138430588Y-80480771D02*
X138430588Y-80718866D01*
X138430588Y-80718866D02*
X138382969Y-80909342D01*
X138382969Y-80909342D02*
X138335350Y-81004580D01*
X138335350Y-81004580D02*
X138287731Y-81052200D01*
X138287731Y-81052200D02*
X138192493Y-81099819D01*
X138192493Y-81099819D02*
X138097255Y-81099819D01*
X138097255Y-81099819D02*
X138002017Y-81052200D01*
X138002017Y-81052200D02*
X137954398Y-81004580D01*
X137954398Y-81004580D02*
X137906779Y-80909342D01*
X137906779Y-80909342D02*
X137859160Y-80718866D01*
X137859160Y-80718866D02*
X137859160Y-80480771D01*
X137859160Y-80480771D02*
X137906779Y-80290295D01*
X137906779Y-80290295D02*
X137954398Y-80195057D01*
X137954398Y-80195057D02*
X138002017Y-80147438D01*
X138002017Y-80147438D02*
X138097255Y-80099819D01*
X139382969Y-81099819D02*
X138811541Y-81099819D01*
X139097255Y-81099819D02*
X139097255Y-80099819D01*
X139097255Y-80099819D02*
X139002017Y-80242676D01*
X139002017Y-80242676D02*
X138906779Y-80337914D01*
X138906779Y-80337914D02*
X138811541Y-80385533D01*
X100110588Y-125127438D02*
X100015350Y-125079819D01*
X100015350Y-125079819D02*
X99872493Y-125079819D01*
X99872493Y-125079819D02*
X99729636Y-125127438D01*
X99729636Y-125127438D02*
X99634398Y-125222676D01*
X99634398Y-125222676D02*
X99586779Y-125317914D01*
X99586779Y-125317914D02*
X99539160Y-125508390D01*
X99539160Y-125508390D02*
X99539160Y-125651247D01*
X99539160Y-125651247D02*
X99586779Y-125841723D01*
X99586779Y-125841723D02*
X99634398Y-125936961D01*
X99634398Y-125936961D02*
X99729636Y-126032200D01*
X99729636Y-126032200D02*
X99872493Y-126079819D01*
X99872493Y-126079819D02*
X99967731Y-126079819D01*
X99967731Y-126079819D02*
X100110588Y-126032200D01*
X100110588Y-126032200D02*
X100158207Y-125984580D01*
X100158207Y-125984580D02*
X100158207Y-125651247D01*
X100158207Y-125651247D02*
X99967731Y-125651247D01*
X100586779Y-126079819D02*
X100586779Y-125079819D01*
X100586779Y-125079819D02*
X101158207Y-126079819D01*
X101158207Y-126079819D02*
X101158207Y-125079819D01*
X101634398Y-126079819D02*
X101634398Y-125079819D01*
X101634398Y-125079819D02*
X101872493Y-125079819D01*
X101872493Y-125079819D02*
X102015350Y-125127438D01*
X102015350Y-125127438D02*
X102110588Y-125222676D01*
X102110588Y-125222676D02*
X102158207Y-125317914D01*
X102158207Y-125317914D02*
X102205826Y-125508390D01*
X102205826Y-125508390D02*
X102205826Y-125651247D01*
X102205826Y-125651247D02*
X102158207Y-125841723D01*
X102158207Y-125841723D02*
X102110588Y-125936961D01*
X102110588Y-125936961D02*
X102015350Y-126032200D01*
X102015350Y-126032200D02*
X101872493Y-126079819D01*
X101872493Y-126079819D02*
X101634398Y-126079819D01*
X138097255Y-82639819D02*
X138192493Y-82639819D01*
X138192493Y-82639819D02*
X138287731Y-82687438D01*
X138287731Y-82687438D02*
X138335350Y-82735057D01*
X138335350Y-82735057D02*
X138382969Y-82830295D01*
X138382969Y-82830295D02*
X138430588Y-83020771D01*
X138430588Y-83020771D02*
X138430588Y-83258866D01*
X138430588Y-83258866D02*
X138382969Y-83449342D01*
X138382969Y-83449342D02*
X138335350Y-83544580D01*
X138335350Y-83544580D02*
X138287731Y-83592200D01*
X138287731Y-83592200D02*
X138192493Y-83639819D01*
X138192493Y-83639819D02*
X138097255Y-83639819D01*
X138097255Y-83639819D02*
X138002017Y-83592200D01*
X138002017Y-83592200D02*
X137954398Y-83544580D01*
X137954398Y-83544580D02*
X137906779Y-83449342D01*
X137906779Y-83449342D02*
X137859160Y-83258866D01*
X137859160Y-83258866D02*
X137859160Y-83020771D01*
X137859160Y-83020771D02*
X137906779Y-82830295D01*
X137906779Y-82830295D02*
X137954398Y-82735057D01*
X137954398Y-82735057D02*
X138002017Y-82687438D01*
X138002017Y-82687438D02*
X138097255Y-82639819D01*
X138763922Y-82639819D02*
X139382969Y-82639819D01*
X139382969Y-82639819D02*
X139049636Y-83020771D01*
X139049636Y-83020771D02*
X139192493Y-83020771D01*
X139192493Y-83020771D02*
X139287731Y-83068390D01*
X139287731Y-83068390D02*
X139335350Y-83116009D01*
X139335350Y-83116009D02*
X139382969Y-83211247D01*
X139382969Y-83211247D02*
X139382969Y-83449342D01*
X139382969Y-83449342D02*
X139335350Y-83544580D01*
X139335350Y-83544580D02*
X139287731Y-83592200D01*
X139287731Y-83592200D02*
X139192493Y-83639819D01*
X139192493Y-83639819D02*
X138906779Y-83639819D01*
X138906779Y-83639819D02*
X138811541Y-83592200D01*
X138811541Y-83592200D02*
X138763922Y-83544580D01*
X83811541Y-87729819D02*
X84430588Y-87729819D01*
X84430588Y-87729819D02*
X84097255Y-88110771D01*
X84097255Y-88110771D02*
X84240112Y-88110771D01*
X84240112Y-88110771D02*
X84335350Y-88158390D01*
X84335350Y-88158390D02*
X84382969Y-88206009D01*
X84382969Y-88206009D02*
X84430588Y-88301247D01*
X84430588Y-88301247D02*
X84430588Y-88539342D01*
X84430588Y-88539342D02*
X84382969Y-88634580D01*
X84382969Y-88634580D02*
X84335350Y-88682200D01*
X84335350Y-88682200D02*
X84240112Y-88729819D01*
X84240112Y-88729819D02*
X83954398Y-88729819D01*
X83954398Y-88729819D02*
X83859160Y-88682200D01*
X83859160Y-88682200D02*
X83811541Y-88634580D01*
X84811541Y-87825057D02*
X84859160Y-87777438D01*
X84859160Y-87777438D02*
X84954398Y-87729819D01*
X84954398Y-87729819D02*
X85192493Y-87729819D01*
X85192493Y-87729819D02*
X85287731Y-87777438D01*
X85287731Y-87777438D02*
X85335350Y-87825057D01*
X85335350Y-87825057D02*
X85382969Y-87920295D01*
X85382969Y-87920295D02*
X85382969Y-88015533D01*
X85382969Y-88015533D02*
X85335350Y-88158390D01*
X85335350Y-88158390D02*
X84763922Y-88729819D01*
X84763922Y-88729819D02*
X85382969Y-88729819D01*
X84100588Y-101099819D02*
X83529160Y-101099819D01*
X83814874Y-101099819D02*
X83814874Y-100099819D01*
X83814874Y-100099819D02*
X83719636Y-100242676D01*
X83719636Y-100242676D02*
X83624398Y-100337914D01*
X83624398Y-100337914D02*
X83529160Y-100385533D01*
X84957731Y-100433152D02*
X84957731Y-101099819D01*
X84719636Y-100052200D02*
X84481541Y-100766485D01*
X84481541Y-100766485D02*
X85100588Y-100766485D01*
X83642969Y-117729819D02*
X83166779Y-117729819D01*
X83166779Y-117729819D02*
X83119160Y-118206009D01*
X83119160Y-118206009D02*
X83166779Y-118158390D01*
X83166779Y-118158390D02*
X83262017Y-118110771D01*
X83262017Y-118110771D02*
X83500112Y-118110771D01*
X83500112Y-118110771D02*
X83595350Y-118158390D01*
X83595350Y-118158390D02*
X83642969Y-118206009D01*
X83642969Y-118206009D02*
X83690588Y-118301247D01*
X83690588Y-118301247D02*
X83690588Y-118539342D01*
X83690588Y-118539342D02*
X83642969Y-118634580D01*
X83642969Y-118634580D02*
X83595350Y-118682200D01*
X83595350Y-118682200D02*
X83500112Y-118729819D01*
X83500112Y-118729819D02*
X83262017Y-118729819D01*
X83262017Y-118729819D02*
X83166779Y-118682200D01*
X83166779Y-118682200D02*
X83119160Y-118634580D01*
X83976303Y-117729819D02*
X84309636Y-118729819D01*
X84309636Y-118729819D02*
X84642969Y-117729819D01*
X85166779Y-117729819D02*
X85262017Y-117729819D01*
X85262017Y-117729819D02*
X85357255Y-117777438D01*
X85357255Y-117777438D02*
X85404874Y-117825057D01*
X85404874Y-117825057D02*
X85452493Y-117920295D01*
X85452493Y-117920295D02*
X85500112Y-118110771D01*
X85500112Y-118110771D02*
X85500112Y-118348866D01*
X85500112Y-118348866D02*
X85452493Y-118539342D01*
X85452493Y-118539342D02*
X85404874Y-118634580D01*
X85404874Y-118634580D02*
X85357255Y-118682200D01*
X85357255Y-118682200D02*
X85262017Y-118729819D01*
X85262017Y-118729819D02*
X85166779Y-118729819D01*
X85166779Y-118729819D02*
X85071541Y-118682200D01*
X85071541Y-118682200D02*
X85023922Y-118634580D01*
X85023922Y-118634580D02*
X84976303Y-118539342D01*
X84976303Y-118539342D02*
X84928684Y-118348866D01*
X84928684Y-118348866D02*
X84928684Y-118110771D01*
X84928684Y-118110771D02*
X84976303Y-117920295D01*
X84976303Y-117920295D02*
X85023922Y-117825057D01*
X85023922Y-117825057D02*
X85071541Y-117777438D01*
X85071541Y-117777438D02*
X85166779Y-117729819D01*
X138430588Y-72397438D02*
X138335350Y-72349819D01*
X138335350Y-72349819D02*
X138192493Y-72349819D01*
X138192493Y-72349819D02*
X138049636Y-72397438D01*
X138049636Y-72397438D02*
X137954398Y-72492676D01*
X137954398Y-72492676D02*
X137906779Y-72587914D01*
X137906779Y-72587914D02*
X137859160Y-72778390D01*
X137859160Y-72778390D02*
X137859160Y-72921247D01*
X137859160Y-72921247D02*
X137906779Y-73111723D01*
X137906779Y-73111723D02*
X137954398Y-73206961D01*
X137954398Y-73206961D02*
X138049636Y-73302200D01*
X138049636Y-73302200D02*
X138192493Y-73349819D01*
X138192493Y-73349819D02*
X138287731Y-73349819D01*
X138287731Y-73349819D02*
X138430588Y-73302200D01*
X138430588Y-73302200D02*
X138478207Y-73254580D01*
X138478207Y-73254580D02*
X138478207Y-72921247D01*
X138478207Y-72921247D02*
X138287731Y-72921247D01*
X138906779Y-73349819D02*
X138906779Y-72349819D01*
X138906779Y-72349819D02*
X139478207Y-73349819D01*
X139478207Y-73349819D02*
X139478207Y-72349819D01*
X139954398Y-73349819D02*
X139954398Y-72349819D01*
X139954398Y-72349819D02*
X140192493Y-72349819D01*
X140192493Y-72349819D02*
X140335350Y-72397438D01*
X140335350Y-72397438D02*
X140430588Y-72492676D01*
X140430588Y-72492676D02*
X140478207Y-72587914D01*
X140478207Y-72587914D02*
X140525826Y-72778390D01*
X140525826Y-72778390D02*
X140525826Y-72921247D01*
X140525826Y-72921247D02*
X140478207Y-73111723D01*
X140478207Y-73111723D02*
X140430588Y-73206961D01*
X140430588Y-73206961D02*
X140335350Y-73302200D01*
X140335350Y-73302200D02*
X140192493Y-73349819D01*
X140192493Y-73349819D02*
X139954398Y-73349819D01*
X84290588Y-103899819D02*
X83719160Y-103899819D01*
X84004874Y-103899819D02*
X84004874Y-102899819D01*
X84004874Y-102899819D02*
X83909636Y-103042676D01*
X83909636Y-103042676D02*
X83814398Y-103137914D01*
X83814398Y-103137914D02*
X83719160Y-103185533D01*
X84671541Y-102995057D02*
X84719160Y-102947438D01*
X84719160Y-102947438D02*
X84814398Y-102899819D01*
X84814398Y-102899819D02*
X85052493Y-102899819D01*
X85052493Y-102899819D02*
X85147731Y-102947438D01*
X85147731Y-102947438D02*
X85195350Y-102995057D01*
X85195350Y-102995057D02*
X85242969Y-103090295D01*
X85242969Y-103090295D02*
X85242969Y-103185533D01*
X85242969Y-103185533D02*
X85195350Y-103328390D01*
X85195350Y-103328390D02*
X84623922Y-103899819D01*
X84623922Y-103899819D02*
X85242969Y-103899819D01*
X82538684Y-72629819D02*
X83157731Y-72629819D01*
X83157731Y-72629819D02*
X82824398Y-73010771D01*
X82824398Y-73010771D02*
X82967255Y-73010771D01*
X82967255Y-73010771D02*
X83062493Y-73058390D01*
X83062493Y-73058390D02*
X83110112Y-73106009D01*
X83110112Y-73106009D02*
X83157731Y-73201247D01*
X83157731Y-73201247D02*
X83157731Y-73439342D01*
X83157731Y-73439342D02*
X83110112Y-73534580D01*
X83110112Y-73534580D02*
X83062493Y-73582200D01*
X83062493Y-73582200D02*
X82967255Y-73629819D01*
X82967255Y-73629819D02*
X82681541Y-73629819D01*
X82681541Y-73629819D02*
X82586303Y-73582200D01*
X82586303Y-73582200D02*
X82538684Y-73534580D01*
X83586303Y-73534580D02*
X83633922Y-73582200D01*
X83633922Y-73582200D02*
X83586303Y-73629819D01*
X83586303Y-73629819D02*
X83538684Y-73582200D01*
X83538684Y-73582200D02*
X83586303Y-73534580D01*
X83586303Y-73534580D02*
X83586303Y-73629819D01*
X83967255Y-72629819D02*
X84586302Y-72629819D01*
X84586302Y-72629819D02*
X84252969Y-73010771D01*
X84252969Y-73010771D02*
X84395826Y-73010771D01*
X84395826Y-73010771D02*
X84491064Y-73058390D01*
X84491064Y-73058390D02*
X84538683Y-73106009D01*
X84538683Y-73106009D02*
X84586302Y-73201247D01*
X84586302Y-73201247D02*
X84586302Y-73439342D01*
X84586302Y-73439342D02*
X84538683Y-73534580D01*
X84538683Y-73534580D02*
X84491064Y-73582200D01*
X84491064Y-73582200D02*
X84395826Y-73629819D01*
X84395826Y-73629819D02*
X84110112Y-73629819D01*
X84110112Y-73629819D02*
X84014874Y-73582200D01*
X84014874Y-73582200D02*
X83967255Y-73534580D01*
X84872017Y-72629819D02*
X85205350Y-73629819D01*
X85205350Y-73629819D02*
X85538683Y-72629819D01*
X83681541Y-90269819D02*
X84300588Y-90269819D01*
X84300588Y-90269819D02*
X83967255Y-90650771D01*
X83967255Y-90650771D02*
X84110112Y-90650771D01*
X84110112Y-90650771D02*
X84205350Y-90698390D01*
X84205350Y-90698390D02*
X84252969Y-90746009D01*
X84252969Y-90746009D02*
X84300588Y-90841247D01*
X84300588Y-90841247D02*
X84300588Y-91079342D01*
X84300588Y-91079342D02*
X84252969Y-91174580D01*
X84252969Y-91174580D02*
X84205350Y-91222200D01*
X84205350Y-91222200D02*
X84110112Y-91269819D01*
X84110112Y-91269819D02*
X83824398Y-91269819D01*
X83824398Y-91269819D02*
X83729160Y-91222200D01*
X83729160Y-91222200D02*
X83681541Y-91174580D01*
X84633922Y-90269819D02*
X85252969Y-90269819D01*
X85252969Y-90269819D02*
X84919636Y-90650771D01*
X84919636Y-90650771D02*
X85062493Y-90650771D01*
X85062493Y-90650771D02*
X85157731Y-90698390D01*
X85157731Y-90698390D02*
X85205350Y-90746009D01*
X85205350Y-90746009D02*
X85252969Y-90841247D01*
X85252969Y-90841247D02*
X85252969Y-91079342D01*
X85252969Y-91079342D02*
X85205350Y-91174580D01*
X85205350Y-91174580D02*
X85157731Y-91222200D01*
X85157731Y-91222200D02*
X85062493Y-91269819D01*
X85062493Y-91269819D02*
X84776779Y-91269819D01*
X84776779Y-91269819D02*
X84681541Y-91222200D01*
X84681541Y-91222200D02*
X84633922Y-91174580D01*
X137859160Y-77715057D02*
X137906779Y-77667438D01*
X137906779Y-77667438D02*
X138002017Y-77619819D01*
X138002017Y-77619819D02*
X138240112Y-77619819D01*
X138240112Y-77619819D02*
X138335350Y-77667438D01*
X138335350Y-77667438D02*
X138382969Y-77715057D01*
X138382969Y-77715057D02*
X138430588Y-77810295D01*
X138430588Y-77810295D02*
X138430588Y-77905533D01*
X138430588Y-77905533D02*
X138382969Y-78048390D01*
X138382969Y-78048390D02*
X137811541Y-78619819D01*
X137811541Y-78619819D02*
X138430588Y-78619819D01*
X138811541Y-77715057D02*
X138859160Y-77667438D01*
X138859160Y-77667438D02*
X138954398Y-77619819D01*
X138954398Y-77619819D02*
X139192493Y-77619819D01*
X139192493Y-77619819D02*
X139287731Y-77667438D01*
X139287731Y-77667438D02*
X139335350Y-77715057D01*
X139335350Y-77715057D02*
X139382969Y-77810295D01*
X139382969Y-77810295D02*
X139382969Y-77905533D01*
X139382969Y-77905533D02*
X139335350Y-78048390D01*
X139335350Y-78048390D02*
X138763922Y-78619819D01*
X138763922Y-78619819D02*
X139382969Y-78619819D01*
X83749160Y-97825057D02*
X83796779Y-97777438D01*
X83796779Y-97777438D02*
X83892017Y-97729819D01*
X83892017Y-97729819D02*
X84130112Y-97729819D01*
X84130112Y-97729819D02*
X84225350Y-97777438D01*
X84225350Y-97777438D02*
X84272969Y-97825057D01*
X84272969Y-97825057D02*
X84320588Y-97920295D01*
X84320588Y-97920295D02*
X84320588Y-98015533D01*
X84320588Y-98015533D02*
X84272969Y-98158390D01*
X84272969Y-98158390D02*
X83701541Y-98729819D01*
X83701541Y-98729819D02*
X84320588Y-98729819D01*
X84653922Y-97729819D02*
X85320588Y-97729819D01*
X85320588Y-97729819D02*
X84892017Y-98729819D01*
M02*
